
    <svg xmlns="http://www.w3.org/2000/svg" width="93.6" height="43.68" viewBox="0 0 93.6 43.68">
        <g id="Groupe_6553" data-name="Groupe 6553" transform="translate(-158.895 -398.1)">
            <g id="Groupe_25" data-name="Groupe 25" transform="translate(186.428 428.732)">
                <path id="Tracé_3188" data-name="Tracé 3188"
                    d="M5.526-4v-.9H.343V0H5.526V-.9H1.464V-2.028H5.526v-.841H1.464V-4Zm5.141-.9H7.13V0h3.537a2.268,2.268,0,0,0,2.4-2.451A2.268,2.268,0,0,0,10.667-4.9ZM10.212-.936H8.251V-3.961h1.961c1.093,0,1.737.252,1.737,1.513S11.3-.936,10.212-.936Zm10.674-1.52V-4.9H19.766v2.444c0,.721-.189,1.59-1.961,1.59s-1.961-.862-1.961-1.59V-4.9H14.723v2.444c0,1.709.925,2.529,3.082,2.529S20.887-.753,20.887-2.455Zm1.555,0c0,1.611.925,2.529,3.082,2.529,1.954,0,2.921-.763,3.054-2.15H27.443c-.126.876-.805,1.212-1.919,1.212-1.324,0-1.961-.462-1.961-1.59s.63-1.576,1.961-1.576c1.114,0,1.793.329,1.919,1.2h1.135c-.133-1.38-1.107-2.136-3.054-2.136C23.366-4.97,22.441-4.059,22.441-2.455ZM34.86,0H36.1L33.438-4.9h-1.45L29.334,0h1.233l.581-1.086h3.138ZM31.6-1.937l1.121-2.094L33.83-1.937ZM42.116-4.9H36.093v.939h2.451V0h1.121V-3.961h2.451Zm2.676,0H43.671V0h1.121ZM49.457.073c2.15,0,3.082-.925,3.082-2.529S51.607-4.97,49.457-4.97s-3.082.911-3.082,2.515S47.3.073,49.457.073Zm0-.939c-1.373,0-1.961-.462-1.961-1.59s.581-1.576,1.961-1.576,1.961.462,1.961,1.576S50.823-.866,49.457-.866ZM59.34-4.9v3.838L55.684-4.9H54.143V0h1.121V-3.828L58.913,0h1.548V-4.9ZM3.32,6.173H5.281C5.26,6.551,4.756,7.2,3.4,7.2c-1.772,0-2.01-1.023-2.01-1.618s.231-1.6,2.01-1.6c1.471,0,1.807.63,1.877,1.037H6.416C6.339,3.819,5.365,3.035,3.4,3.035c-2.017,0-3.131.918-3.131,2.522S1.387,8.078,3.194,8.078A2.957,2.957,0,0,0,5.47,7.216l.042.791h.9V5.388H3.32ZM13.8,4.884A1.722,1.722,0,0,0,11.921,3.1H8.069v4.9H9.189V6.656h2.269l.819,1.352H13.6L12.685,6.53A1.638,1.638,0,0,0,13.8,4.884ZM9.189,4.043h2.381c.427,0,1.107,0,1.107.841s-.679.834-1.107.834H9.189Zm9.176,4.034c2.15,0,3.082-.925,3.082-2.529s-.932-2.515-3.082-2.515-3.082.911-3.082,2.515S16.208,8.078,18.365,8.078Zm0-.939c-1.373,0-1.961-.462-1.961-1.59s.581-1.576,1.961-1.576,1.961.462,1.961,1.576S19.731,7.139,18.365,7.139Zm10.9-1.59V3.1H28.143V5.549c0,.721-.189,1.59-1.961,1.59s-1.961-.862-1.961-1.59V3.1H23.1V5.549c0,1.709.925,2.529,3.082,2.529S29.264,7.251,29.264,5.549ZM34.79,3.1H30.938v4.9h1.121V6.656H34.79a1.717,1.717,0,0,0,1.877-1.772A1.722,1.722,0,0,0,34.79,3.1Zm-.35,2.613H32.058V4.043H34.44c.427,0,1.107,0,1.107.841S34.867,5.718,34.44,5.718Z"
                    transform="translate(-0.273 4.97)" fill="#000"></path>
                <g id="Groupe_6551" data-name="Groupe 6551" transform="translate(38.968 8.725)">
                    <path id="Polygone_4" data-name="Polygone 4"
                        d="M3.242,0,4.323,1.873,3.242,3.746H1.081L0,1.873,1.081,0Z"
                        transform="translate(10.23 4.323) rotate(-90)" fill="#ef8f60"></path>
                    <path id="Polygone_6" data-name="Polygone 6"
                        d="M3.242,0,4.323,1.873,3.242,3.746H1.081L0,1.873,1.081,0Z"
                        transform="translate(2.987 4.323) rotate(-90)" fill="#9938f7"></path>
                    <path id="Polygone_5" data-name="Polygone 5"
                        d="M3.242,0,4.323,1.873,3.242,3.746H1.081L0,1.873,1.081,0Z"
                        transform="translate(17.474 4.323) rotate(-90)" fill="#39cff6"></path>
                </g>
            </g>
            <path id="Tracé_24" data-name="Tracé 24"
                d="M-23.96-17.91v-.667h-6.96V-15.2A6.455,6.455,0,0,0-37-18.969a9.664,9.664,0,0,0-9.8,9.45A9.664,9.664,0,0,0-37-.069a6.517,6.517,0,0,0,6.08-3.764v17.88l4.12,1.961V-17.91ZM-30.92-6.618A5.972,5.972,0,0,1-37-.775c-4.76,0-5.6-5.686-5.6-8.744,0-3.1.84-8.744,5.6-8.744a5.942,5.942,0,0,1,6.08,5.8Zm27.24,5.45v-17.41H-10.6v.667h2.84v9.8C-7.8-5.794-9.12-.775-13.36-.775c-2.92,0-3.08-2.98-3.08-5.137V-18.577h-6.92v.667h2.8V-6.97c0,5.411,3.36,6.9,6.44,6.9A6.3,6.3,0,0,0-7.76-4.579V-.461H-.84v-.706ZM9.16-.775c-4.76,0-5.6-5.686-5.6-8.744v-.745H18.12a8.692,8.692,0,0,0-8.96-8.7,9.664,9.664,0,0,0-9.8,9.45,9.664,9.664,0,0,0,9.8,9.45A9.041,9.041,0,0,0,17.4-4.931h-.72A8.111,8.111,0,0,1,9.16-.775Zm0-17.488c3.56,0,4.52,4.156,4.76,7.293H3.6C3.88-14.107,5.04-18.263,9.16-18.263Zm16.96,6.117c-2.72-1.019-3.68-1.843-3.68-3.372,0-.784.6-2.784,3.36-2.784,2.6,0,4.48,1.412,5.64,4.431h.68l-1.68-4.705H27.92a6.4,6.4,0,0,0-2.28-.392c-3.28,0-5.84,1.961-5.84,4.784,0,2.353.92,3.882,5.2,5.725,3.2,1.412,4.96,2.51,4.96,4.313,0,1.765-1.36,3.372-4.28,3.372-2.6,0-4.96-1.568-6.28-5.176h-.68l1.92,5.49h2.64a13.909,13.909,0,0,0,2.56.392c4.24,0,7.16-2.2,7.16-5.254C33-7.99,31.64-10.107,26.12-12.146Zm20.12,6.2c-.16,1.529-1.08,5.176-3.72,5.176-2.84,0-2.4-4.039-2.4-7.136v-10h5.8v-.667h-5.8V-23.4H36.04v4.823H33.2v.667h2.84V-6.931c0,5.137,2.76,6.862,5.8,6.862,4,0,4.72-4.392,4.96-5.882Z"
                transform="translate(205.695 421.5)" fill="#000"></path>
        </g>
    </svg>